<svg xmlns="http://www.w3.org/2000/svg" xmlns:xlink="http://www.w3.org/1999/xlink" width="20.64" height="20.63" viewBox="0 0 20.64 20.63">
  <defs>
    <style>
      .cls-1 {
        fill: #fff;
      }

      .cls-2 {
        fill: url(#linear-gradient);
      }

      .cls-3 {
        fill: url(#linear-gradient-2);
      }
    </style>
    <linearGradient id="linear-gradient" x1="0.5" y1="1" x2="0.5" gradientUnits="objectBoundingBox">
      <stop offset="0" stop-opacity="0.302"/>
      <stop offset="0.6" stop-opacity="0"/>
      <stop offset="1" stop-opacity="0"/>
    </linearGradient>
    <linearGradient id="linear-gradient-2" x1="0.5" y1="1" x2="0.5" gradientUnits="objectBoundingBox">
      <stop offset="0" stop-opacity="0"/>
      <stop offset="0.4" stop-opacity="0"/>
      <stop offset="1" stop-opacity="0.302"/>
    </linearGradient>
  </defs>
  <g id="Logo" transform="translate(-169.917 -31.182)">
    <g id="Leg">
      <rect id="Leg-2" data-name="Leg" class="cls-1" width="4.75" height="20.57" rx="2.37" transform="translate(185.78 31.21)"/>
      <path id="Gradient_Overlay" data-name="Gradient Overlay" class="cls-2" d="M188.15,31.21h.01a2.37,2.37,0,0,1,2.37,2.37V49.41a2.37,2.37,0,0,1-2.37,2.37h-.01a2.37,2.37,0,0,1-2.37-2.37V33.58A2.37,2.37,0,0,1,188.15,31.21Z"/>
    </g>
    <g id="Leg-3" data-name="Leg">
      <rect id="Leg-4" data-name="Leg" class="cls-1" width="4.75" height="20.57" rx="2.37" transform="translate(169.95 31.21)"/>
      <path id="Gradient_Overlay-2" data-name="Gradient Overlay" class="cls-3" d="M172.32,31.21h.01a2.37,2.37,0,0,1,2.37,2.37V49.41a2.37,2.37,0,0,1-2.37,2.37h-.01a2.37,2.37,0,0,1-2.37-2.37V33.58A2.37,2.37,0,0,1,172.32,31.21Z"/>
    </g>
    <path id="Crossbar" class="cls-1" d="M170.613,31.877a2.375,2.375,0,0,1,3.357,0l15.892,15.884a2.373,2.373,0,0,1-3.357,3.356L170.613,35.233A2.372,2.372,0,0,1,170.613,31.877Z"/>
  </g>
</svg>
